<svg width="177" height="35" viewBox="0 0 177 35" fill="none" xmlns="http://www.w3.org/2000/svg">
<g clip-path="url(#clip0_310_3806)">
<path d="M63.4765 14.3869H76.3913V17.5295L69.6515 18.6149C67.7161 18.9101 66.1041 19.4142 64.8108 20.1272C63.5175 20.8401 62.5566 21.7212 61.9327 22.7748C61.3088 23.8283 60.9946 25.0363 60.9946 26.4033C60.9946 27.8565 61.3362 29.1099 62.0193 30.1635C62.7023 31.2171 63.686 32.0254 64.9656 32.5886C66.2452 33.1517 67.7617 33.4332 69.5149 33.4332C70.8219 33.4332 72.015 33.2607 73.0852 32.9201C74.1553 32.5795 75.1207 32.0618 75.986 31.3624C76.455 30.9855 76.9013 30.545 77.3248 30.059L78.6181 32.8974H83.0809V8.60127H65.4529L63.4674 14.3869H63.4765ZM75.7036 25.8901C75.2437 26.7075 74.597 27.3524 73.7637 27.8247C72.9303 28.3015 71.9649 28.5377 70.8629 28.5377C70.0295 28.5377 69.3282 28.3288 68.7635 27.9155C68.1989 27.5023 67.9165 26.921 67.9165 26.1807C67.9165 25.3815 68.167 24.7639 68.677 24.3324C69.1825 23.901 69.9111 23.5967 70.8629 23.4196L76.3958 22.6158V23.1971C76.3958 24.178 76.1636 25.0727 75.7036 25.8901Z" fill="#556174"/>
<path d="M118.66 9.22344C117.308 8.45141 115.75 8.0654 113.997 8.0654C112.003 8.0654 110.263 8.54224 108.778 9.49138C107.886 10.059 107.121 10.8174 106.479 11.7575C105.973 10.9219 105.281 10.1998 104.384 9.60037C102.849 8.57857 101.073 8.0654 99.0514 8.0654C97.1479 8.0654 95.513 8.51045 94.1423 9.40055C93.2361 9.99092 92.339 10.5858 91.7242 11.4623L90.4355 8.60128H85.9727V32.8974H92.6669V18.7012C92.6669 17.752 92.8399 16.9346 93.1814 16.2534C93.523 15.5722 94.0148 15.0363 94.6523 14.6503C95.2899 14.2643 96.0413 14.0736 96.9065 14.0736C97.7718 14.0736 98.5596 14.2688 99.1835 14.6503C99.8073 15.0363 100.29 15.5722 100.632 16.2534C100.973 16.9346 101.146 17.752 101.146 18.7012V32.8974H107.84V18.7012C107.84 17.752 108.013 16.9346 108.355 16.2534C108.696 15.5722 109.188 15.0363 109.826 14.6503C110.463 14.2643 111.215 14.0736 112.08 14.0736C112.945 14.0736 113.733 14.2688 114.357 14.6503C114.981 15.0363 115.464 15.5722 115.805 16.2534C116.147 16.9346 116.32 17.752 116.32 18.7012V32.8974H123.014V17.2797C123.014 15.4405 122.627 13.8329 121.853 12.4523C121.078 11.0718 120.017 10 118.66 9.22798V9.22344Z" fill="#556174"/>
<path d="M145.41 9.75931C143.534 8.63306 141.439 8.06994 139.116 8.06994C137.331 8.06994 135.747 8.40145 134.362 9.06903C133.497 9.48683 132.746 10.0091 132.108 10.6403V0L125.414 3.82834V32.8974H129.877L131.083 29.8865C131.94 31.0445 133.06 31.921 134.449 32.5204C135.86 33.129 137.4 33.4332 139.066 33.4332C141.448 33.4332 143.575 32.8701 145.446 31.7439C147.323 30.6176 148.798 29.0872 149.886 27.1617C150.97 25.2316 151.517 23.0972 151.517 20.7539C151.517 18.4105 150.966 16.2352 149.864 14.3233C148.762 12.4114 147.277 10.8901 145.401 9.76385L145.41 9.75931ZM143.802 24.2189C143.265 25.2271 142.523 26.0127 141.571 26.5758C140.619 27.139 139.517 27.4205 138.269 27.4205C137.022 27.4205 136.015 27.139 135.077 26.5758C134.139 26.0127 133.41 25.2271 132.891 24.2189C132.372 23.2107 132.113 22.0527 132.113 20.7493C132.113 19.446 132.372 18.2879 132.891 17.2797C133.41 16.2716 134.139 15.4859 135.077 14.9228C136.015 14.3597 137.076 14.0781 138.269 14.0781C139.517 14.0781 140.619 14.3688 141.571 14.9455C142.523 15.5223 143.265 16.3124 143.802 17.3025C144.34 18.297 144.604 19.446 144.604 20.7493C144.604 22.0527 144.335 23.2107 143.802 24.2189Z" fill="#556174"/>
<path d="M176.199 15.3406C175.661 13.901 174.883 12.634 173.858 11.535C172.833 10.436 171.576 9.58674 170.087 8.97821C168.598 8.36967 166.89 8.0654 164.955 8.0654C162.633 8.0654 160.551 8.6149 158.707 9.7139C156.863 10.8129 155.396 12.3115 154.313 14.2098C153.224 16.1081 152.682 18.2743 152.682 20.7085C152.682 23.1426 153.202 25.1862 154.244 27.1163C155.287 29.0463 156.758 30.5813 158.662 31.7212C160.565 32.8656 162.81 33.4332 165.401 33.4332C167.068 33.4332 168.598 33.188 169.996 32.6976C171.394 32.2071 172.606 31.5168 173.635 30.6267C174.659 29.7366 175.411 28.6966 175.889 27.5114L170.534 24.9728C170.055 25.8038 169.395 26.4578 168.548 26.9301C167.701 27.4069 166.681 27.6431 165.492 27.6431C164.181 27.6431 163.065 27.3524 162.145 26.7757C161.221 26.1989 160.538 25.3906 160.092 24.3506C159.864 23.8147 159.709 23.238 159.627 22.6158H176.69C176.809 22.2888 176.891 21.8983 176.936 21.4351C176.982 20.9764 177.005 20.5086 177.005 20.0318C177.005 18.3424 176.736 16.7757 176.203 15.3361L176.199 15.3406ZM161.963 14.2507C162.797 13.6876 163.794 13.406 164.955 13.406C166.116 13.406 167.15 13.6966 167.965 14.2734C168.785 14.8501 169.354 15.6403 169.682 16.6303C169.796 16.9755 169.869 17.3388 169.91 17.7203H159.805C159.882 17.3751 159.973 17.0481 160.092 16.7393C160.506 15.6403 161.134 14.8093 161.968 14.2461L161.963 14.2507Z" fill="#556174"/>
<path d="M54.8788 8.60127L49.9196 24.0009L44.9604 8.60127H37.5649L45.9031 32.8974H53.9361L62.2743 8.60127H54.8788Z" fill="#556174"/>
<path d="M15.9841 6.48502C10.606 6.48502 0 17.0618 0 22.4251C0 27.7884 10.606 35 15.9841 35C21.3622 35 31.9682 27.7884 31.9682 22.4251C31.9682 17.0618 21.3668 6.48502 15.9841 6.48502ZM15.9841 30.0954C13.2928 30.0954 4.91818 25.109 4.91818 22.4296C4.91818 19.7502 13.2973 11.3942 15.9841 11.3942C18.6709 11.3942 27.05 19.7502 27.05 22.4296C27.05 25.109 18.6709 30.0954 15.9841 30.0954Z" fill="#1B52E5"/>
</g>
<defs>
<clipPath id="clip0_310_3806">
<rect width="177" height="35" fill="white"/>
</clipPath>
</defs>
</svg>
